<?xml version="1.0" standalone="no"?>
<!DOCTYPE svg PUBLIC "-//W3C//DTD SVG 20010904//EN"
 "http://www.w3.org/TR/2001/REC-SVG-20010904/DTD/svg10.dtd">
<svg version="1.0" xmlns="http://www.w3.org/2000/svg"
 width="500.000000pt" height="500.000000pt" viewBox="0 0 500.000000 500.000000"
 preserveAspectRatio="xMidYMid meet">
<metadata>
Created by potrace 1.11, written by Peter Selinger 2001-2013
</metadata>
<g transform="translate(0.000000,500.000000) scale(0.100000,-0.100000)"
fill="#000000" stroke="none">
<path d="M72 4176 l0 -726 41 0 c116 -2 271 -19 407 -46 284 -57 626 -198 870
-359 194 -128 458 -355 584 -503 l19 -22 -90 -87 c-108 -106 -162 -155 -228
-208 -28 -21 -52 -42 -55 -45 -12 -15 -244 -173 -329 -225 -96 -58 -362 -195
-378 -195 -5 0 -28 -9 -51 -20 -22 -11 -47 -20 -55 -20 -7 0 -17 -4 -22 -9 -8
-7 -145 -56 -190 -68 -5 -1 -48 -13 -95 -27 -72 -21 -155 -41 -255 -60 -12 -2
-48 -8 -80 -12 -33 -4 -63 -9 -67 -10 -5 -1 -19 -2 -31 -3 l-24 -1 0 -726 0
-726 51 6 c140 17 143 18 371 70 97 23 297 92 438 152 277 118 496 250 742
444 113 89 123 99 265 240 144 144 262 282 377 445 74 103 203 313 203 328 0
29 55 -43 87 -113 28 -60 226 -337 318 -445 28 -33 62 -73 76 -89 49 -58 207
-212 299 -291 147 -127 257 -206 490 -350 58 -36 228 -120 344 -170 189 -82
436 -157 641 -196 28 -5 59 -11 70 -13 11 -2 48 -7 83 -11 48 -5 62 -4 63 7 4
59 3 1422 -1 1428 -3 4 -27 11 -55 14 -400 52 -840 207 -1186 419 -39 23 -78
47 -87 52 -114 66 -353 257 -501 400 -99 97 -112 114 -103 131 13 24 224 231
312 305 262 224 603 411 915 503 50 14 104 31 120 36 76 24 313 59 450 66 54
3 102 7 105 9 3 2 5 326 5 722 l0 718 -85 -1 c-128 0 -263 -16 -390 -45 -25
-6 -55 -13 -66 -15 -49 -9 -203 -57 -292 -90 -604 -227 -1115 -687 -1518
-1367 l-82 -139 -42 74 c-372 649 -812 1083 -1365 1349 -211 101 -503 191
-694 214 -30 4 -63 9 -75 11 -11 2 -73 6 -137 10 l-118 6 1 -726z"/>
</g>
</svg>
