<svg xmlns="http://www.w3.org/2000/svg" xmlns:xlink="http://www.w3.org/1999/xlink" width="78" height="15" version="1.1" viewBox="0 0 78 15"><title>Mighty Crayon Logo</title><desc>Created with Sketch.</desc><g id="Landing" fill="none" fill-rule="evenodd" stroke="none" stroke-width="1"><g id="Loading-Copy-5" fill="#FFF" stroke="#FFF" transform="translate(-169.000000, -43.000000)"><g id="Header" transform="translate(170.000000, 44.000000)"><g id="Logo"><path id="Mighty Crayon" d="M13.7029178,0.389322917 L7.6776397,12.6445313 L6.02527811,12.6445313 L0,0.389322917 L1.2684796,0.389322917 L6.85980417,11.7473958 L12.4344382,0.389322917 L13.7029178,0.389322917 Z M35.1306692,6.5 C35.1306692,8.48046875 34.3795958,10.0885417 32.8941394,11.3242188 C31.6256598,12.3736979 29.8564645,13 27.853602,13 C25.8507395,13 24.0648537,12.3736979 22.7963741,11.3242188 C21.3109178,10.0885417 20.5598443,8.48046875 20.5598443,6.5 C20.5598443,4.55338542 21.3276083,2.92838542 22.8130646,1.69270833 C24.0982348,0.626302083 25.8841205,0 27.853602,0 C29.806393,0 31.5922787,0.626302083 32.8774489,1.69270833 C34.3629052,2.92838542 35.1306692,4.55338542 35.1306692,6.5 Z M33.9790233,6.5 C33.9790233,4.84114583 33.3114024,3.453125 32.0095418,2.40364583 C30.9413484,1.55729167 29.455892,1.03255208 27.853602,1.03255208 C26.251312,1.03255208 24.7491651,1.55729167 23.6976623,2.40364583 C22.3958016,3.453125 21.7448713,4.82421875 21.7448713,6.5 C21.7448713,9.76692708 24.1649969,11.9505208 27.853602,11.9505208 C31.5422072,11.9505208 33.9790233,9.75 33.9790233,6.5 Z M54.8059159,12.6445313 L44.3910307,12.6445313 L44.3910307,0.389322917 L45.4759146,0.389322917 L45.4759146,11.578125 L54.8059159,11.578125 L54.8059159,12.6445313 Z M69.6075304,0.389322917 C73.5631839,0.389322917 76,2.79296875 76,6.65234375 C76,8.34505208 75.3991412,9.83463542 74.2808763,10.9518229 C73.1793019,12.0520833 71.677155,12.6445313 70.0081029,12.6445313 L62.4139158,12.6445313 L62.4139158,0.389322917 L69.6075304,0.389322917 Z M70.0915555,11.578125 C71.4267972,11.578125 72.5784432,11.0703125 73.4630408,10.1054687 C74.2808763,9.19140625 74.7482109,7.95572917 74.7482109,6.6015625 C74.7482109,3.53776042 72.7453484,1.45572917 69.7744356,1.45572917 L63.4987997,1.45572917 L63.4987997,11.578125 L70.0915555,11.578125 Z"/></g></g></g></g></svg>